<mxfile host="app.diagrams.net" agent="Mozilla/5.0 (Windows NT 10.0; Win64; x64) AppleWebKit/537.36 (KHTML, like Gecko) Chrome/126.0.0.0 Safari/537.36 OPR/112.0.0.0" version="24.7.14">
  <diagram name="Страница — 1" id="oD7_ohd307wVfpKMzc00">
    <mxGraphModel dx="2072" dy="785" grid="1" gridSize="10" guides="1" tooltips="1" connect="1" arrows="1" fold="1" page="1" pageScale="1" pageWidth="827" pageHeight="1169" math="0" shadow="0">
      <root>
        <mxCell id="0" />
        <mxCell id="1" parent="0" />
        <mxCell id="-4HTNG4G19awHYg9AVc4-1" value="Заказы" style="swimlane;fontStyle=1;align=center;verticalAlign=top;childLayout=stackLayout;horizontal=1;startSize=25.25;horizontalStack=0;resizeParent=1;resizeParentMax=0;resizeLast=0;collapsible=0;marginBottom=0;" vertex="1" parent="1">
          <mxGeometry x="253" y="20" width="262" height="308.25" as="geometry" />
        </mxCell>
        <mxCell id="-4HTNG4G19awHYg9AVc4-2" value="id: int" style="text;strokeColor=none;fillColor=none;align=left;verticalAlign=top;spacingLeft=4;spacingRight=4;overflow=hidden;rotatable=0;points=[[0,0.5],[1,0.5]];portConstraint=eastwest;" vertex="1" parent="-4HTNG4G19awHYg9AVc4-1">
          <mxGeometry y="25.25" width="262" height="25" as="geometry" />
        </mxCell>
        <mxCell id="-4HTNG4G19awHYg9AVc4-3" value="Клиент: Клиент" style="text;strokeColor=none;fillColor=none;align=left;verticalAlign=top;spacingLeft=4;spacingRight=4;overflow=hidden;rotatable=0;points=[[0,0.5],[1,0.5]];portConstraint=eastwest;" vertex="1" parent="-4HTNG4G19awHYg9AVc4-1">
          <mxGeometry y="50.25" width="262" height="25" as="geometry" />
        </mxCell>
        <mxCell id="-4HTNG4G19awHYg9AVc4-4" value="Товары: список[Товар]" style="text;strokeColor=none;fillColor=none;align=left;verticalAlign=top;spacingLeft=4;spacingRight=4;overflow=hidden;rotatable=0;points=[[0,0.5],[1,0.5]];portConstraint=eastwest;" vertex="1" parent="-4HTNG4G19awHYg9AVc4-1">
          <mxGeometry y="75.25" width="262" height="25" as="geometry" />
        </mxCell>
        <mxCell id="-4HTNG4G19awHYg9AVc4-5" value="Статус: Статус_заказа" style="text;strokeColor=none;fillColor=none;align=left;verticalAlign=top;spacingLeft=4;spacingRight=4;overflow=hidden;rotatable=0;points=[[0,0.5],[1,0.5]];portConstraint=eastwest;" vertex="1" parent="-4HTNG4G19awHYg9AVc4-1">
          <mxGeometry y="100.25" width="262" height="25" as="geometry" />
        </mxCell>
        <mxCell id="-4HTNG4G19awHYg9AVc4-6" value="Номер_отслеживания: str" style="text;strokeColor=none;fillColor=none;align=left;verticalAlign=top;spacingLeft=4;spacingRight=4;overflow=hidden;rotatable=0;points=[[0,0.5],[1,0.5]];portConstraint=eastwest;" vertex="1" parent="-4HTNG4G19awHYg9AVc4-1">
          <mxGeometry y="125.25" width="262" height="25" as="geometry" />
        </mxCell>
        <mxCell id="-4HTNG4G19awHYg9AVc4-7" value="Метод_доставки: МетодДоставки" style="text;strokeColor=none;fillColor=none;align=left;verticalAlign=top;spacingLeft=4;spacingRight=4;overflow=hidden;rotatable=0;points=[[0,0.5],[1,0.5]];portConstraint=eastwest;" vertex="1" parent="-4HTNG4G19awHYg9AVc4-1">
          <mxGeometry y="150.25" width="262" height="25" as="geometry" />
        </mxCell>
        <mxCell id="-4HTNG4G19awHYg9AVc4-8" value="Дата_доставки: date" style="text;strokeColor=none;fillColor=none;align=left;verticalAlign=top;spacingLeft=4;spacingRight=4;overflow=hidden;rotatable=0;points=[[0,0.5],[1,0.5]];portConstraint=eastwest;" vertex="1" parent="-4HTNG4G19awHYg9AVc4-1">
          <mxGeometry y="175.25" width="262" height="25" as="geometry" />
        </mxCell>
        <mxCell id="-4HTNG4G19awHYg9AVc4-9" value="Дата_создания: date" style="text;strokeColor=none;fillColor=none;align=left;verticalAlign=top;spacingLeft=4;spacingRight=4;overflow=hidden;rotatable=0;points=[[0,0.5],[1,0.5]];portConstraint=eastwest;" vertex="1" parent="-4HTNG4G19awHYg9AVc4-1">
          <mxGeometry y="200.25" width="262" height="25" as="geometry" />
        </mxCell>
        <mxCell id="-4HTNG4G19awHYg9AVc4-10" value="Дата_обновления: date" style="text;strokeColor=none;fillColor=none;align=left;verticalAlign=top;spacingLeft=4;spacingRight=4;overflow=hidden;rotatable=0;points=[[0,0.5],[1,0.5]];portConstraint=eastwest;" vertex="1" parent="-4HTNG4G19awHYg9AVc4-1">
          <mxGeometry y="225.25" width="262" height="25" as="geometry" />
        </mxCell>
        <mxCell id="-4HTNG4G19awHYg9AVc4-11" style="line;strokeWidth=1;fillColor=none;align=left;verticalAlign=middle;spacingTop=-1;spacingLeft=3;spacingRight=3;rotatable=0;labelPosition=right;points=[];portConstraint=eastwest;strokeColor=inherit;" vertex="1" parent="-4HTNG4G19awHYg9AVc4-1">
          <mxGeometry y="250.25" width="262" height="8" as="geometry" />
        </mxCell>
        <mxCell id="-4HTNG4G19awHYg9AVc4-12" value="Рассчитать_общую_стоимость()" style="text;strokeColor=none;fillColor=none;align=left;verticalAlign=top;spacingLeft=4;spacingRight=4;overflow=hidden;rotatable=0;points=[[0,0.5],[1,0.5]];portConstraint=eastwest;" vertex="1" parent="-4HTNG4G19awHYg9AVc4-1">
          <mxGeometry y="258.25" width="262" height="25" as="geometry" />
        </mxCell>
        <mxCell id="-4HTNG4G19awHYg9AVc4-13" value="Обновить_статус()" style="text;strokeColor=none;fillColor=none;align=left;verticalAlign=top;spacingLeft=4;spacingRight=4;overflow=hidden;rotatable=0;points=[[0,0.5],[1,0.5]];portConstraint=eastwest;" vertex="1" parent="-4HTNG4G19awHYg9AVc4-1">
          <mxGeometry y="283.25" width="262" height="25" as="geometry" />
        </mxCell>
        <mxCell id="-4HTNG4G19awHYg9AVc4-14" value="Клиент" style="swimlane;fontStyle=1;align=center;verticalAlign=top;childLayout=stackLayout;horizontal=1;startSize=25.818181818181817;horizontalStack=0;resizeParent=1;resizeParentMax=0;resizeLast=0;collapsible=0;marginBottom=0;" vertex="1" parent="1">
          <mxGeometry x="20" y="393" width="122" height="142.8181818181818" as="geometry" />
        </mxCell>
        <mxCell id="-4HTNG4G19awHYg9AVc4-15" value="id: int" style="text;strokeColor=none;fillColor=none;align=left;verticalAlign=top;spacingLeft=4;spacingRight=4;overflow=hidden;rotatable=0;points=[[0,0.5],[1,0.5]];portConstraint=eastwest;" vertex="1" parent="-4HTNG4G19awHYg9AVc4-14">
          <mxGeometry y="25.818181818181817" width="122" height="26" as="geometry" />
        </mxCell>
        <mxCell id="-4HTNG4G19awHYg9AVc4-16" value="Имя: str" style="text;strokeColor=none;fillColor=none;align=left;verticalAlign=top;spacingLeft=4;spacingRight=4;overflow=hidden;rotatable=0;points=[[0,0.5],[1,0.5]];portConstraint=eastwest;" vertex="1" parent="-4HTNG4G19awHYg9AVc4-14">
          <mxGeometry y="51.81818181818181" width="122" height="26" as="geometry" />
        </mxCell>
        <mxCell id="-4HTNG4G19awHYg9AVc4-17" value="email: str" style="text;strokeColor=none;fillColor=none;align=left;verticalAlign=top;spacingLeft=4;spacingRight=4;overflow=hidden;rotatable=0;points=[[0,0.5],[1,0.5]];portConstraint=eastwest;" vertex="1" parent="-4HTNG4G19awHYg9AVc4-14">
          <mxGeometry y="77.81818181818181" width="122" height="26" as="geometry" />
        </mxCell>
        <mxCell id="-4HTNG4G19awHYg9AVc4-18" value="Адрес: Адрес" style="text;strokeColor=none;fillColor=none;align=left;verticalAlign=top;spacingLeft=4;spacingRight=4;overflow=hidden;rotatable=0;points=[[0,0.5],[1,0.5]];portConstraint=eastwest;" vertex="1" parent="-4HTNG4G19awHYg9AVc4-14">
          <mxGeometry y="103.81818181818181" width="122" height="26" as="geometry" />
        </mxCell>
        <mxCell id="-4HTNG4G19awHYg9AVc4-19" style="line;strokeWidth=1;fillColor=none;align=left;verticalAlign=middle;spacingTop=-1;spacingLeft=3;spacingRight=3;rotatable=0;labelPosition=right;points=[];portConstraint=eastwest;strokeColor=inherit;" vertex="1" parent="-4HTNG4G19awHYg9AVc4-14">
          <mxGeometry y="129.8181818181818" width="122" height="13" as="geometry" />
        </mxCell>
        <mxCell id="-4HTNG4G19awHYg9AVc4-20" value="Адрес" style="swimlane;fontStyle=1;align=center;verticalAlign=top;childLayout=stackLayout;horizontal=1;startSize=25.384615384615383;horizontalStack=0;resizeParent=1;resizeParentMax=0;resizeLast=0;collapsible=0;marginBottom=0;" vertex="1" parent="1">
          <mxGeometry x="28" y="604" width="106" height="163.3846153846154" as="geometry" />
        </mxCell>
        <mxCell id="-4HTNG4G19awHYg9AVc4-21" value="Улица: str" style="text;strokeColor=none;fillColor=none;align=left;verticalAlign=top;spacingLeft=4;spacingRight=4;overflow=hidden;rotatable=0;points=[[0,0.5],[1,0.5]];portConstraint=eastwest;" vertex="1" parent="-4HTNG4G19awHYg9AVc4-20">
          <mxGeometry y="25.384615384615383" width="106" height="25" as="geometry" />
        </mxCell>
        <mxCell id="-4HTNG4G19awHYg9AVc4-22" value="Город: str" style="text;strokeColor=none;fillColor=none;align=left;verticalAlign=top;spacingLeft=4;spacingRight=4;overflow=hidden;rotatable=0;points=[[0,0.5],[1,0.5]];portConstraint=eastwest;" vertex="1" parent="-4HTNG4G19awHYg9AVc4-20">
          <mxGeometry y="50.38461538461539" width="106" height="25" as="geometry" />
        </mxCell>
        <mxCell id="-4HTNG4G19awHYg9AVc4-23" value="Штат: str" style="text;strokeColor=none;fillColor=none;align=left;verticalAlign=top;spacingLeft=4;spacingRight=4;overflow=hidden;rotatable=0;points=[[0,0.5],[1,0.5]];portConstraint=eastwest;" vertex="1" parent="-4HTNG4G19awHYg9AVc4-20">
          <mxGeometry y="75.38461538461539" width="106" height="25" as="geometry" />
        </mxCell>
        <mxCell id="-4HTNG4G19awHYg9AVc4-24" value="Индекс: str" style="text;strokeColor=none;fillColor=none;align=left;verticalAlign=top;spacingLeft=4;spacingRight=4;overflow=hidden;rotatable=0;points=[[0,0.5],[1,0.5]];portConstraint=eastwest;" vertex="1" parent="-4HTNG4G19awHYg9AVc4-20">
          <mxGeometry y="100.38461538461539" width="106" height="25" as="geometry" />
        </mxCell>
        <mxCell id="-4HTNG4G19awHYg9AVc4-25" value="Страна: str" style="text;strokeColor=none;fillColor=none;align=left;verticalAlign=top;spacingLeft=4;spacingRight=4;overflow=hidden;rotatable=0;points=[[0,0.5],[1,0.5]];portConstraint=eastwest;" vertex="1" parent="-4HTNG4G19awHYg9AVc4-20">
          <mxGeometry y="125.38461538461539" width="106" height="25" as="geometry" />
        </mxCell>
        <mxCell id="-4HTNG4G19awHYg9AVc4-26" style="line;strokeWidth=1;fillColor=none;align=left;verticalAlign=middle;spacingTop=-1;spacingLeft=3;spacingRight=3;rotatable=0;labelPosition=right;points=[];portConstraint=eastwest;strokeColor=inherit;" vertex="1" parent="-4HTNG4G19awHYg9AVc4-20">
          <mxGeometry y="150.3846153846154" width="106" height="13" as="geometry" />
        </mxCell>
        <mxCell id="-4HTNG4G19awHYg9AVc4-27" value="Товар" style="swimlane;fontStyle=1;align=center;verticalAlign=top;childLayout=stackLayout;horizontal=1;startSize=25.818181818181817;horizontalStack=0;resizeParent=1;resizeParentMax=0;resizeLast=0;collapsible=0;marginBottom=0;" vertex="1" parent="1">
          <mxGeometry x="192" y="393" width="139" height="142.8181818181818" as="geometry" />
        </mxCell>
        <mxCell id="-4HTNG4G19awHYg9AVc4-28" value="id: int" style="text;strokeColor=none;fillColor=none;align=left;verticalAlign=top;spacingLeft=4;spacingRight=4;overflow=hidden;rotatable=0;points=[[0,0.5],[1,0.5]];portConstraint=eastwest;" vertex="1" parent="-4HTNG4G19awHYg9AVc4-27">
          <mxGeometry y="25.818181818181817" width="139" height="26" as="geometry" />
        </mxCell>
        <mxCell id="-4HTNG4G19awHYg9AVc4-29" value="Название: str" style="text;strokeColor=none;fillColor=none;align=left;verticalAlign=top;spacingLeft=4;spacingRight=4;overflow=hidden;rotatable=0;points=[[0,0.5],[1,0.5]];portConstraint=eastwest;" vertex="1" parent="-4HTNG4G19awHYg9AVc4-27">
          <mxGeometry y="51.81818181818181" width="139" height="26" as="geometry" />
        </mxCell>
        <mxCell id="-4HTNG4G19awHYg9AVc4-30" value="Цена: float" style="text;strokeColor=none;fillColor=none;align=left;verticalAlign=top;spacingLeft=4;spacingRight=4;overflow=hidden;rotatable=0;points=[[0,0.5],[1,0.5]];portConstraint=eastwest;" vertex="1" parent="-4HTNG4G19awHYg9AVc4-27">
          <mxGeometry y="77.81818181818181" width="139" height="26" as="geometry" />
        </mxCell>
        <mxCell id="-4HTNG4G19awHYg9AVc4-31" value="Количество: int" style="text;strokeColor=none;fillColor=none;align=left;verticalAlign=top;spacingLeft=4;spacingRight=4;overflow=hidden;rotatable=0;points=[[0,0.5],[1,0.5]];portConstraint=eastwest;" vertex="1" parent="-4HTNG4G19awHYg9AVc4-27">
          <mxGeometry y="103.81818181818181" width="139" height="26" as="geometry" />
        </mxCell>
        <mxCell id="-4HTNG4G19awHYg9AVc4-32" style="line;strokeWidth=1;fillColor=none;align=left;verticalAlign=middle;spacingTop=-1;spacingLeft=3;spacingRight=3;rotatable=0;labelPosition=right;points=[];portConstraint=eastwest;strokeColor=inherit;" vertex="1" parent="-4HTNG4G19awHYg9AVc4-27">
          <mxGeometry y="129.8181818181818" width="139" height="13" as="geometry" />
        </mxCell>
        <mxCell id="-4HTNG4G19awHYg9AVc4-33" value="Метод_доставки" style="swimlane;fontStyle=1;align=center;verticalAlign=top;childLayout=stackLayout;horizontal=1;startSize=25.818181818181817;horizontalStack=0;resizeParent=1;resizeParentMax=0;resizeLast=0;collapsible=0;marginBottom=0;" vertex="1" parent="1">
          <mxGeometry x="380" y="393" width="253" height="142.8181818181818" as="geometry" />
        </mxCell>
        <mxCell id="-4HTNG4G19awHYg9AVc4-34" value="id: int" style="text;strokeColor=none;fillColor=none;align=left;verticalAlign=top;spacingLeft=4;spacingRight=4;overflow=hidden;rotatable=0;points=[[0,0.5],[1,0.5]];portConstraint=eastwest;" vertex="1" parent="-4HTNG4G19awHYg9AVc4-33">
          <mxGeometry y="25.818181818181817" width="253" height="26" as="geometry" />
        </mxCell>
        <mxCell id="-4HTNG4G19awHYg9AVc4-35" value="Название: str" style="text;strokeColor=none;fillColor=none;align=left;verticalAlign=top;spacingLeft=4;spacingRight=4;overflow=hidden;rotatable=0;points=[[0,0.5],[1,0.5]];portConstraint=eastwest;" vertex="1" parent="-4HTNG4G19awHYg9AVc4-33">
          <mxGeometry y="51.81818181818181" width="253" height="26" as="geometry" />
        </mxCell>
        <mxCell id="-4HTNG4G19awHYg9AVc4-36" value="Стоимость: float" style="text;strokeColor=none;fillColor=none;align=left;verticalAlign=top;spacingLeft=4;spacingRight=4;overflow=hidden;rotatable=0;points=[[0,0.5],[1,0.5]];portConstraint=eastwest;" vertex="1" parent="-4HTNG4G19awHYg9AVc4-33">
          <mxGeometry y="77.81818181818181" width="253" height="26" as="geometry" />
        </mxCell>
        <mxCell id="-4HTNG4G19awHYg9AVc4-37" value="Ожидаемое_время_доставки: int" style="text;strokeColor=none;fillColor=none;align=left;verticalAlign=top;spacingLeft=4;spacingRight=4;overflow=hidden;rotatable=0;points=[[0,0.5],[1,0.5]];portConstraint=eastwest;" vertex="1" parent="-4HTNG4G19awHYg9AVc4-33">
          <mxGeometry y="103.81818181818181" width="253" height="26" as="geometry" />
        </mxCell>
        <mxCell id="-4HTNG4G19awHYg9AVc4-38" style="line;strokeWidth=1;fillColor=none;align=left;verticalAlign=middle;spacingTop=-1;spacingLeft=3;spacingRight=3;rotatable=0;labelPosition=right;points=[];portConstraint=eastwest;strokeColor=inherit;" vertex="1" parent="-4HTNG4G19awHYg9AVc4-33">
          <mxGeometry y="129.8181818181818" width="253" height="13" as="geometry" />
        </mxCell>
        <mxCell id="-4HTNG4G19awHYg9AVc4-39" value="Статус_заказа" style="swimlane;fontStyle=1;align=center;verticalAlign=top;childLayout=stackLayout;horizontal=1;startSize=25.384615384615383;horizontalStack=0;resizeParent=1;resizeParentMax=0;resizeLast=0;collapsible=0;marginBottom=0;" vertex="1" parent="1">
          <mxGeometry x="683" y="381" width="159" height="163.3846153846154" as="geometry" />
        </mxCell>
        <mxCell id="-4HTNG4G19awHYg9AVc4-40" value="Ожидание" style="text;strokeColor=none;fillColor=none;align=left;verticalAlign=top;spacingLeft=4;spacingRight=4;overflow=hidden;rotatable=0;points=[[0,0.5],[1,0.5]];portConstraint=eastwest;" vertex="1" parent="-4HTNG4G19awHYg9AVc4-39">
          <mxGeometry y="25.384615384615383" width="159" height="25" as="geometry" />
        </mxCell>
        <mxCell id="-4HTNG4G19awHYg9AVc4-41" value="Обработка" style="text;strokeColor=none;fillColor=none;align=left;verticalAlign=top;spacingLeft=4;spacingRight=4;overflow=hidden;rotatable=0;points=[[0,0.5],[1,0.5]];portConstraint=eastwest;" vertex="1" parent="-4HTNG4G19awHYg9AVc4-39">
          <mxGeometry y="50.38461538461539" width="159" height="25" as="geometry" />
        </mxCell>
        <mxCell id="-4HTNG4G19awHYg9AVc4-42" value="Отправлен" style="text;strokeColor=none;fillColor=none;align=left;verticalAlign=top;spacingLeft=4;spacingRight=4;overflow=hidden;rotatable=0;points=[[0,0.5],[1,0.5]];portConstraint=eastwest;" vertex="1" parent="-4HTNG4G19awHYg9AVc4-39">
          <mxGeometry y="75.38461538461539" width="159" height="25" as="geometry" />
        </mxCell>
        <mxCell id="-4HTNG4G19awHYg9AVc4-43" value="Доставлен" style="text;strokeColor=none;fillColor=none;align=left;verticalAlign=top;spacingLeft=4;spacingRight=4;overflow=hidden;rotatable=0;points=[[0,0.5],[1,0.5]];portConstraint=eastwest;" vertex="1" parent="-4HTNG4G19awHYg9AVc4-39">
          <mxGeometry y="100.38461538461539" width="159" height="25" as="geometry" />
        </mxCell>
        <mxCell id="-4HTNG4G19awHYg9AVc4-44" value="Отменен" style="text;strokeColor=none;fillColor=none;align=left;verticalAlign=top;spacingLeft=4;spacingRight=4;overflow=hidden;rotatable=0;points=[[0,0.5],[1,0.5]];portConstraint=eastwest;" vertex="1" parent="-4HTNG4G19awHYg9AVc4-39">
          <mxGeometry y="125.38461538461539" width="159" height="25" as="geometry" />
        </mxCell>
        <mxCell id="-4HTNG4G19awHYg9AVc4-45" style="line;strokeWidth=1;fillColor=none;align=left;verticalAlign=middle;spacingTop=-1;spacingLeft=3;spacingRight=3;rotatable=0;labelPosition=right;points=[];portConstraint=eastwest;strokeColor=inherit;" vertex="1" parent="-4HTNG4G19awHYg9AVc4-39">
          <mxGeometry y="150.3846153846154" width="159" height="13" as="geometry" />
        </mxCell>
        <mxCell id="-4HTNG4G19awHYg9AVc4-46" value="" style="curved=1;startArrow=none;endArrow=open;endSize=12;exitX=0;exitY=0.75;entryX=0.5;entryY=0;rounded=0;" edge="1" parent="1" source="-4HTNG4G19awHYg9AVc4-1" target="-4HTNG4G19awHYg9AVc4-14">
          <mxGeometry relative="1" as="geometry">
            <Array as="points">
              <mxPoint x="81" y="356" />
            </Array>
          </mxGeometry>
        </mxCell>
        <mxCell id="-4HTNG4G19awHYg9AVc4-47" value="1" style="edgeLabel;resizable=0;labelBackgroundColor=none;fontSize=12;align=right;verticalAlign=top;" vertex="1" parent="-4HTNG4G19awHYg9AVc4-46">
          <mxGeometry x="-1" relative="1" as="geometry" />
        </mxCell>
        <mxCell id="-4HTNG4G19awHYg9AVc4-48" value="1" style="edgeLabel;resizable=0;labelBackgroundColor=none;fontSize=12;align=left;verticalAlign=bottom;" vertex="1" parent="-4HTNG4G19awHYg9AVc4-46">
          <mxGeometry x="1" relative="1" as="geometry" />
        </mxCell>
        <mxCell id="-4HTNG4G19awHYg9AVc4-49" value="" style="curved=1;startArrow=none;endArrow=open;endSize=12;exitX=0.1;exitY=1;entryX=0.5;entryY=0;rounded=0;" edge="1" parent="1" source="-4HTNG4G19awHYg9AVc4-1" target="-4HTNG4G19awHYg9AVc4-27">
          <mxGeometry relative="1" as="geometry">
            <Array as="points">
              <mxPoint x="261" y="356" />
            </Array>
          </mxGeometry>
        </mxCell>
        <mxCell id="-4HTNG4G19awHYg9AVc4-50" value="1" style="edgeLabel;resizable=0;labelBackgroundColor=none;fontSize=12;align=right;verticalAlign=top;" vertex="1" parent="-4HTNG4G19awHYg9AVc4-49">
          <mxGeometry x="-1" relative="1" as="geometry" />
        </mxCell>
        <mxCell id="-4HTNG4G19awHYg9AVc4-51" value="*" style="edgeLabel;resizable=0;labelBackgroundColor=none;fontSize=12;align=left;verticalAlign=bottom;" vertex="1" parent="-4HTNG4G19awHYg9AVc4-49">
          <mxGeometry x="1" relative="1" as="geometry" />
        </mxCell>
        <mxCell id="-4HTNG4G19awHYg9AVc4-52" value="" style="curved=1;startArrow=none;endArrow=open;endSize=12;exitX=0.9;exitY=1;entryX=0.5;entryY=0;rounded=0;" edge="1" parent="1" source="-4HTNG4G19awHYg9AVc4-1" target="-4HTNG4G19awHYg9AVc4-33">
          <mxGeometry relative="1" as="geometry">
            <Array as="points">
              <mxPoint x="507" y="356" />
            </Array>
          </mxGeometry>
        </mxCell>
        <mxCell id="-4HTNG4G19awHYg9AVc4-53" value="1" style="edgeLabel;resizable=0;labelBackgroundColor=none;fontSize=12;align=right;verticalAlign=top;" vertex="1" parent="-4HTNG4G19awHYg9AVc4-52">
          <mxGeometry x="-1" relative="1" as="geometry" />
        </mxCell>
        <mxCell id="-4HTNG4G19awHYg9AVc4-54" value="1" style="edgeLabel;resizable=0;labelBackgroundColor=none;fontSize=12;align=left;verticalAlign=bottom;" vertex="1" parent="-4HTNG4G19awHYg9AVc4-52">
          <mxGeometry x="1" relative="1" as="geometry" />
        </mxCell>
        <mxCell id="-4HTNG4G19awHYg9AVc4-55" value="" style="curved=1;startArrow=none;endArrow=open;endSize=12;exitX=1;exitY=0.7;entryX=0.5;entryY=0;rounded=0;" edge="1" parent="1" source="-4HTNG4G19awHYg9AVc4-1" target="-4HTNG4G19awHYg9AVc4-39">
          <mxGeometry relative="1" as="geometry">
            <Array as="points">
              <mxPoint x="763" y="356" />
            </Array>
          </mxGeometry>
        </mxCell>
        <mxCell id="-4HTNG4G19awHYg9AVc4-56" value="1" style="edgeLabel;resizable=0;labelBackgroundColor=none;fontSize=12;align=left;verticalAlign=top;" vertex="1" parent="-4HTNG4G19awHYg9AVc4-55">
          <mxGeometry x="-1" relative="1" as="geometry" />
        </mxCell>
        <mxCell id="-4HTNG4G19awHYg9AVc4-57" value="1" style="edgeLabel;resizable=0;labelBackgroundColor=none;fontSize=12;align=right;verticalAlign=bottom;" vertex="1" parent="-4HTNG4G19awHYg9AVc4-55">
          <mxGeometry x="1" relative="1" as="geometry" />
        </mxCell>
        <mxCell id="-4HTNG4G19awHYg9AVc4-58" value="" style="curved=1;startArrow=none;endArrow=open;endSize=12;exitX=0.5;exitY=1;entryX=0.5;entryY=0;rounded=0;" edge="1" parent="1" source="-4HTNG4G19awHYg9AVc4-14" target="-4HTNG4G19awHYg9AVc4-20">
          <mxGeometry relative="1" as="geometry">
            <Array as="points" />
          </mxGeometry>
        </mxCell>
        <mxCell id="-4HTNG4G19awHYg9AVc4-59" value="1" style="edgeLabel;resizable=0;labelBackgroundColor=none;fontSize=12;align=right;verticalAlign=top;" vertex="1" parent="-4HTNG4G19awHYg9AVc4-58">
          <mxGeometry x="-1" relative="1" as="geometry" />
        </mxCell>
        <mxCell id="-4HTNG4G19awHYg9AVc4-60" value="1" style="edgeLabel;resizable=0;labelBackgroundColor=none;fontSize=12;align=left;verticalAlign=bottom;" vertex="1" parent="-4HTNG4G19awHYg9AVc4-58">
          <mxGeometry x="1" relative="1" as="geometry" />
        </mxCell>
      </root>
    </mxGraphModel>
  </diagram>
</mxfile>
